<svg width="52" height="14" viewBox="0 0 52 14" fill="none" xmlns="http://www.w3.org/2000/svg">
<g clip-path="url(#clip0_10491_26235)">
<path d="M18.1372 9.94382C18.1455 10.3382 18.0748 10.7304 17.9292 11.098C17.7998 11.4161 17.6002 11.7021 17.3449 11.9352C17.0883 12.1643 16.7889 12.3422 16.4633 12.4589C16.1092 12.5851 15.7376 12.6579 15.3613 12.6746V11.5249C15.6592 11.4703 15.9297 11.3183 16.1288 11.0935C16.3412 10.86 16.4475 10.532 16.4475 10.1073V3.35254H18.1372V9.94382Z" fill="#434343"/>
<path d="M25.0564 6.88435C25.0589 7.3594 25.0062 7.83318 24.8993 8.29646C24.8078 8.70782 24.64 9.09906 24.4043 9.4506C24.1813 9.77491 23.8825 10.0418 23.5329 10.2289C23.1323 10.4185 22.6934 10.5169 22.2489 10.5169C21.8044 10.5169 21.3656 10.4185 20.965 10.2289C20.6149 10.0424 20.3159 9.7754 20.0935 9.4506C19.8574 9.0993 19.6896 8.70797 19.5985 8.29646C19.389 7.36671 19.389 6.40312 19.5985 5.47337C19.6896 5.0615 19.8574 4.66981 20.0935 4.31811C20.3165 3.99381 20.6154 3.72689 20.965 3.53979C21.3658 3.35095 21.8045 3.25293 22.2489 3.25293C22.6933 3.25293 23.1321 3.35095 23.5329 3.53979C23.882 3.72756 24.1807 3.99435 24.4043 4.31811C24.64 4.67005 24.8078 5.06166 24.8993 5.47337C25.0061 5.93628 25.0588 6.40968 25.0564 6.88435V6.88435ZM23.334 6.81875C23.334 6.51706 23.32 6.22056 23.2921 5.92924C23.2698 5.65861 23.2156 5.39144 23.1305 5.13313C23.0646 4.921 22.9506 4.72636 22.7971 4.56384C22.6484 4.42526 22.4514 4.34803 22.2467 4.34803C22.0419 4.34803 21.8449 4.42526 21.6962 4.56384C21.5446 4.72697 21.4322 4.92153 21.3673 5.13313C21.2823 5.39144 21.228 5.65861 21.2057 5.92924C21.1778 6.22575 21.1639 6.52225 21.1639 6.81875C21.1639 7.11526 21.1778 7.41472 21.2057 7.71716C21.2274 7.98705 21.2797 8.25372 21.3617 8.51216C21.4253 8.72299 21.5379 8.91637 21.6906 9.077C21.8424 9.21564 22.0418 9.29269 22.2489 9.29269C22.456 9.29269 22.6555 9.21564 22.8073 9.077C22.9602 8.91584 23.0742 8.72275 23.1407 8.51216C23.2258 8.25444 23.2785 7.98746 23.2978 7.71716C23.3219 7.42214 23.334 7.12267 23.334 6.81875Z" fill="#434343"/>
<path d="M31.5325 8.46458C31.5401 8.78026 31.4724 9.0933 31.3347 9.37855C31.2032 9.63784 31.0053 9.85896 30.7605 10.0201C30.4819 10.1995 30.1719 10.3266 29.8462 10.3948C29.4499 10.4811 29.0449 10.5225 28.6391 10.5182C27.649 10.5182 26.8819 10.3811 26.3379 10.1068V3.65788C26.6343 3.51732 26.9487 3.41708 27.2726 3.35989C27.694 3.28173 28.1221 3.24448 28.5509 3.2487C28.9659 3.24175 29.3799 3.29 29.7817 3.39214C30.0923 3.47003 30.3846 3.60593 30.643 3.79242C30.8566 3.94496 31.0297 4.14583 31.1477 4.37807C31.2658 4.6103 31.3252 4.86707 31.3211 5.12669C31.3255 5.33789 31.285 5.54767 31.2025 5.74267C31.1288 5.91168 31.025 6.06643 30.8962 6.19966C30.7759 6.32312 30.6381 6.42875 30.487 6.51321C30.3489 6.59095 30.2006 6.64969 30.0462 6.68778V6.70668C30.2229 6.7548 30.3929 6.82387 30.5526 6.91238C30.7326 7.01012 30.8961 7.13464 31.0374 7.28153C31.1847 7.43484 31.3064 7.61009 31.398 7.80078C31.4927 8.00937 31.5387 8.2362 31.5325 8.46458V8.46458ZM29.7083 5.2401C29.7083 4.53516 29.327 4.18269 28.5645 4.18269C28.4539 4.18214 28.3433 4.18734 28.2333 4.19826C28.1349 4.20932 28.0382 4.23171 27.9451 4.26497V6.34865H28.2842C28.8161 6.34865 29.1872 6.2597 29.3975 6.0818C29.6111 5.90501 29.7105 5.62481 29.7105 5.24121L29.7083 5.2401ZM29.8371 8.40343C29.8371 7.98536 29.7241 7.67291 29.4981 7.46388C29.272 7.25484 28.8583 7.15144 28.2808 7.15144H27.9417V9.41969C28.0321 9.45605 28.1266 9.4818 28.2231 9.49641C28.3439 9.515 28.466 9.52355 28.5882 9.52199C28.9845 9.52199 29.2908 9.43822 29.5071 9.2707C29.7233 9.10317 29.8334 8.81408 29.8371 8.40343Z" fill="#434343"/>
<path d="M36.6818 8.30023C36.6851 8.60554 36.6247 8.90828 36.5044 9.18974C36.3904 9.45402 36.2213 9.69188 36.0082 9.888C35.7868 10.0886 35.5282 10.2453 35.2464 10.3494C34.935 10.4657 34.6041 10.5235 34.271 10.5196C33.8938 10.525 33.5172 10.4877 33.1487 10.4084C32.8794 10.3498 32.6232 10.2435 32.3926 10.0948L32.7757 8.93734C32.9264 9.02905 33.0872 9.10366 33.255 9.15972C33.4727 9.23544 33.7022 9.27307 33.9331 9.27091C34.1891 9.28537 34.441 9.20303 34.6372 9.04075C34.7222 8.96299 34.789 8.86807 34.8331 8.76251C34.8772 8.65694 34.8975 8.54324 34.8927 8.42921C34.8973 8.21576 34.8161 8.00915 34.6666 7.85436C34.4412 7.64929 34.1775 7.48918 33.8901 7.38292C33.64 7.27685 33.4063 7.13647 33.1962 6.96596C33.0245 6.82766 32.8765 6.66325 32.7576 6.47895C32.6549 6.31711 32.5786 6.14038 32.5316 5.95525C32.4872 5.78408 32.4645 5.60819 32.4638 5.43155C32.4626 5.14393 32.5155 4.85857 32.6198 4.58985C32.719 4.3301 32.8731 4.09401 33.0719 3.89715C33.2787 3.6969 33.5232 3.53827 33.7918 3.43015C34.0913 3.31023 34.4123 3.25086 34.7356 3.25558C35.0737 3.24901 35.4111 3.28868 35.7381 3.37344C35.9781 3.43592 36.2069 3.53456 36.4162 3.66587L36.0613 4.68214C35.914 4.59708 35.7584 4.52668 35.5968 4.47199C35.4006 4.40514 35.1941 4.37204 34.9865 4.37414C34.8695 4.36576 34.7521 4.38053 34.641 4.41758C34.53 4.45463 34.4276 4.51321 34.34 4.58985C34.2642 4.66931 34.2056 4.76314 34.1679 4.86561C34.1302 4.96808 34.1142 5.07704 34.1207 5.18583C34.1145 5.29985 34.1342 5.41381 34.1784 5.5194C34.2226 5.625 34.2901 5.71957 34.3761 5.79625C34.5924 5.97104 34.8329 6.11445 35.0905 6.22211C35.3883 6.3502 35.6689 6.51416 35.9257 6.71023C36.1139 6.85557 36.2762 7.03067 36.4061 7.22837C36.5118 7.39355 36.5861 7.57628 36.6253 7.76763C36.6604 7.94313 36.6794 8.12138 36.6818 8.30023V8.30023Z" fill="#434343"/>
<path d="M39.5716 9.58504C39.5719 9.705 39.5481 9.82384 39.5016 9.93473C39.4551 10.0456 39.3867 10.1464 39.3005 10.2312C39.2143 10.316 39.1118 10.3832 38.9991 10.429C38.8864 10.4748 38.7656 10.4982 38.6437 10.4979C38.5221 10.5003 38.4014 10.4778 38.2891 10.4318C38.1769 10.3859 38.0755 10.3175 37.9915 10.231C37.8204 10.0579 37.7246 9.82597 37.7246 9.58448C37.7246 9.34299 37.8204 9.11103 37.9915 8.93792C38.0755 8.85145 38.1769 8.78309 38.2891 8.73715C38.4014 8.69122 38.5221 8.66871 38.6437 8.67107C38.7657 8.67077 38.8866 8.69422 38.9994 8.74006C39.1122 8.7859 39.2146 8.85323 39.3009 8.93817C39.3871 9.02312 39.4554 9.124 39.5019 9.23501C39.5484 9.34603 39.5721 9.46499 39.5716 9.58504V9.58504Z" fill="#434343"/>
<path d="M44.7994 10.4153L44.3609 8.90643H42.201L41.7421 10.4153H40.2344L42.5717 3.35254H44.2207L46.5479 10.4153H44.7994ZM43.4951 5.65193C43.4601 5.52851 43.4318 5.41621 43.4115 5.31836C43.3911 5.22052 43.3731 5.126 43.3595 5.05151C43.3459 4.97701 43.3346 4.88028 43.3278 4.80467H43.3075C43.298 4.88394 43.284 4.96264 43.2657 5.04039C43.251 5.116 43.2318 5.20717 43.208 5.3128C43.1843 5.41843 43.1538 5.53518 43.1188 5.65637L42.4508 7.95576H44.1314L43.4951 5.65193Z" fill="#434343"/>
<path d="M49.1094 4.47221V6.27903H50.8206V7.35645H49.1094V10.4153H47.4141V3.35254H51.0772V4.47221H49.1094Z" fill="#434343"/>
<path d="M6.64017 13.4163C10.3074 13.4163 13.2803 10.4916 13.2803 6.88391C13.2803 3.2762 10.3074 0.351562 6.64017 0.351562C2.97291 0.351562 0 3.2762 0 6.88391C0 10.4916 2.97291 13.4163 6.64017 13.4163Z" fill="#D2E3F1"/>
<path d="M9.53103 7.51952C9.2496 6.99137 7.83567 7.38276 7.83567 7.38276L7.8221 7.25489C7.00833 7.83641 6.66813 7.50173 6.47147 7.24377C6.42852 7.18706 6.37879 7.40611 6.30758 7.39388C5.76846 7.29936 5.23159 7.19707 4.82131 7.52619C4.59763 7.72945 4.40703 7.96533 4.25619 8.22557C3.90695 8.75705 3.46502 9.25518 3.352 9.90675C3.23898 10.5583 3.73402 10.4227 4.47094 10.1603C4.35791 10.5772 4.16577 11.3144 4.18499 11.469C4.21098 11.6913 4.18499 12.1272 5.44634 12.1027C6.70769 12.0783 6.46355 11.8114 6.84784 11.221C7.10773 10.8422 7.41112 10.4941 7.75203 10.1836C8.7263 9.86783 9.78872 8.0043 9.53103 7.51952Z" fill="white"/>
<path d="M7.01398 7.5957C7.01398 7.5957 6.10978 9.05006 7.20838 10.1297C8.30698 11.2093 7.91817 11.2093 7.91817 11.2093L8.82237 11.4629L8.69239 10.5733C8.69239 10.5733 6.19907 9.447 7.11909 7.5957H7.01398Z" fill="#EA5A4F"/>
<path d="M6.46875 6.59548L6.53656 7.37381C6.95136 7.91752 7.8013 7.42273 7.8013 7.42273L7.89399 6.57324L6.46875 6.59548Z" fill="url(#paint0_linear_10491_26235)"/>
<path d="M9.80658 4.42196C9.74555 3.50799 9.08549 2.75413 9.08549 2.75413C8.39973 2.31907 7.6036 2.08214 6.7877 2.07031C6.18189 2.07031 5.6925 2.22264 5.4495 2.44947C4.93297 2.92869 4.38707 4.39639 4.45827 5.14469C4.48653 5.46047 4.52044 5.64059 4.63798 5.78847C4.50461 5.80738 4.3882 5.86853 4.42776 6.02976C4.50235 6.33664 5.64051 6.67465 5.70945 6.43226L5.8496 6.50231C7.08044 7.12163 7.23076 6.92038 7.58566 6.86812C7.85804 6.82809 8.82214 6.1087 9.25954 5.77068C9.50142 6.15317 10.3627 5.33594 10.4633 4.70883C10.5345 4.27297 10.1072 4.32968 9.80658 4.42196Z" fill="url(#paint1_linear_10491_26235)"/>
<path d="M8.19138 3.83183C7.8523 3.88187 7.64886 4.33996 7.72798 4.85477C7.8071 5.36957 8.14391 5.74428 8.47959 5.69535C8.81527 5.64643 9.02211 5.18833 8.94299 4.67353C8.86727 4.18874 8.56549 3.82738 8.25128 3.82738C8.23135 3.82577 8.21131 3.82577 8.19138 3.82738V3.83183Z" fill="url(#paint2_linear_10491_26235)"/>
<path d="M7.66592 4.86338C7.70104 5.16917 7.85393 5.45009 8.09315 5.64837C8.14774 5.69346 8.21147 5.72659 8.28009 5.74555C8.34871 5.76452 8.42064 5.76889 8.49111 5.75837C8.56158 5.74785 8.62896 5.72268 8.68877 5.68454C8.74858 5.6464 8.79945 5.59617 8.83799 5.53719C8.99453 5.27342 9.05435 4.9648 9.00745 4.66287C8.96055 4.36094 8.80977 4.08398 8.58029 3.87824C8.52517 3.83403 8.46145 3.80137 8.39303 3.78225C8.32462 3.76313 8.25296 3.75796 8.18244 3.76706C7.81285 3.82154 7.58115 4.31188 7.66592 4.86115V4.86338ZM8.20279 3.89381C8.25641 3.88804 8.31067 3.89273 8.36246 3.90761C8.41424 3.92249 8.46253 3.94728 8.50456 3.98054C8.70591 4.16676 8.83769 4.41421 8.8787 4.68307C8.9197 4.95193 8.86754 5.22654 8.73061 5.46269C8.70214 5.50832 8.66389 5.54729 8.61853 5.57688C8.57318 5.60647 8.5218 5.62597 8.468 5.63401C8.41419 5.64206 8.35925 5.63846 8.307 5.62346C8.25475 5.60847 8.20646 5.58244 8.16549 5.54719C7.95382 5.36851 7.81925 5.11725 7.78912 4.84448C7.71566 4.36636 7.90215 3.9394 8.19827 3.89381H8.20279Z" fill="#231F20"/>
<path d="M8.05245 4.79209C8.09766 5.09007 8.2785 5.31023 8.4469 5.28466C8.61531 5.25908 8.72042 4.99668 8.67295 4.69869C8.62548 4.4007 8.44691 4.18055 8.2785 4.20612C8.1101 4.2317 8.00498 4.4941 8.05245 4.79209Z" fill="#231F20"/>
<path d="M8.26288 4.58287C8.29679 4.79857 8.40982 4.96202 8.51606 4.94645C8.6223 4.93089 8.6822 4.74187 8.6483 4.52393C8.61439 4.306 8.50024 4.14367 8.39512 4.15924C8.29001 4.1748 8.23011 4.36383 8.26288 4.58287Z" fill="white"/>
<path d="M8.19368 5.15785C8.20724 5.24902 8.25471 5.31685 8.29992 5.31129C8.34513 5.30573 8.37 5.22345 8.3553 5.13228C8.34061 5.0411 8.29427 4.97327 8.24906 4.97883C8.20385 4.98439 8.17899 5.06556 8.19368 5.15785Z" fill="white"/>
<path d="M5.74695 3.88405C5.40788 3.93519 5.20557 4.39218 5.28468 4.90699C5.3638 5.42179 5.70061 5.7965 6.03629 5.74869C6.37198 5.70088 6.57881 5.24055 6.49856 4.72575C6.42397 4.24208 6.12106 3.88071 5.80799 3.88071C5.78766 3.87961 5.76728 3.87961 5.74695 3.88071V3.88405Z" fill="url(#paint3_linear_10491_26235)"/>
<path d="M5.2192 4.91622C5.25464 5.22392 5.40878 5.5065 5.64982 5.70566C5.70441 5.75075 5.76813 5.78387 5.83675 5.80284C5.90537 5.82181 5.97731 5.82618 6.04778 5.81566C6.11824 5.80514 6.18563 5.77997 6.24544 5.74183C6.30525 5.70369 6.35611 5.65346 6.39465 5.59447C6.56192 5.3349 6.62291 5.02259 6.56531 4.72053C6.47942 4.17126 6.11322 3.76986 5.74024 3.82546C5.67012 3.83794 5.60322 3.86403 5.54345 3.90221C5.48369 3.94039 5.43224 3.98989 5.39213 4.04783C5.22525 4.30755 5.16466 4.61986 5.22259 4.92178L5.2192 4.91622ZM5.75606 3.94665C6.05445 3.90106 6.35961 4.25576 6.43421 4.73498C6.48718 5.0035 6.43424 5.2818 6.28615 5.5133C6.25795 5.55924 6.21982 5.59851 6.17446 5.62833C6.12911 5.65815 6.07765 5.67779 6.02372 5.68586C5.96979 5.69392 5.91471 5.69021 5.8624 5.67499C5.81009 5.65978 5.76183 5.63343 5.72103 5.59781C5.50897 5.4199 5.37428 5.16882 5.34466 4.89621C5.29238 4.62782 5.34484 4.34991 5.49159 4.11788C5.52147 4.07368 5.56008 4.03584 5.60512 4.00661C5.65017 3.97739 5.70073 3.95738 5.7538 3.94777L5.75606 3.94665Z" fill="#231F20"/>
<path d="M5.60715 4.8437C5.65349 5.14169 5.83319 5.36184 6.00273 5.33627C6.17227 5.3107 6.27512 5.04829 6.22878 4.75141C6.18244 4.45454 6.00273 4.23327 5.83546 4.25885C5.66818 4.28442 5.56081 4.54682 5.60941 4.8437H5.60715Z" fill="#231F20"/>
<path d="M5.81624 4.63338C5.84902 4.85576 5.96204 5.01365 6.06829 4.99808C6.17453 4.98252 6.23443 4.79349 6.20053 4.57556C6.16662 4.35763 6.05359 4.19641 5.94735 4.21086C5.84111 4.22532 5.78233 4.41656 5.81624 4.63338V4.63338Z" fill="white"/>
<path d="M5.74678 5.20962C5.76034 5.3019 5.80894 5.37195 5.85302 5.36417C5.8971 5.35639 5.9231 5.27855 5.90953 5.18627C5.89597 5.09398 5.84737 5.02504 5.79651 5.03283C5.74565 5.04061 5.72643 5.11844 5.74113 5.20962H5.74678Z" fill="white"/>
<path d="M6.30469 6.2712C6.31746 6.20092 6.35044 6.13571 6.39971 6.0833C6.44899 6.03088 6.5125 5.99345 6.58273 5.97544C6.58273 5.97544 6.32277 5.92318 6.30469 6.2712Z" fill="#231F20"/>
<path d="M7.90959 6.28353C7.84064 6.17234 7.69484 6.0556 7.55469 6.0834C7.55469 6.0834 7.78752 5.95775 7.90959 6.28353Z" fill="#231F20"/>
<path d="M7.76286 6.13504C7.76286 6.13504 7.25425 6.94561 6.42578 6.06055C6.42578 6.06055 7.22486 7.23915 7.76286 6.13504Z" fill="#231F20"/>
<path d="M7.26329 5.78836C7.21582 5.77613 7.07454 5.72387 7.05081 5.64715C7.03951 5.60713 7.05985 5.55931 7.11297 5.50372L7.01803 5.41699C6.98058 5.44934 6.95248 5.49085 6.9366 5.53733C6.92072 5.5838 6.91762 5.63359 6.92761 5.68162C6.97621 5.84173 7.20565 5.904 7.23052 5.91178L7.26329 5.78836Z" fill="#231F20"/>
<path opacity="0.41" d="M9.5625 5.54789C9.5625 5.54789 10.3537 4.80292 10.07 4.71175C9.78629 4.62057 9.88462 5.27658 9.5625 5.54789Z" fill="#231F20"/>
<path opacity="0.41" d="M5.21259 6.20006C5.21259 6.20006 4.62034 6.20006 4.80231 5.9043L5.21259 6.20006Z" fill="#231F20"/>
<path d="M4.96315 11.13C4.91794 11.1133 4.86369 11.15 4.84221 11.2123C4.83103 11.2364 4.82898 11.2637 4.83645 11.2892C4.84391 11.3147 4.86038 11.3367 4.8829 11.3513C4.92698 11.3657 4.98123 11.329 5.00271 11.269C5.02418 11.2089 5.00723 11.1456 4.96315 11.13Z" fill="#231F20"/>
<path d="M7.63596 7.26074H7.63477L7.63834 7.26525L7.63596 7.26074Z" fill="#231F20"/>
<path d="M5.07071 10.3459C5.02663 10.3314 4.97238 10.3692 4.94977 10.4292C4.93839 10.4536 4.93635 10.4812 4.94403 10.507C4.95172 10.5327 4.96861 10.5549 4.99159 10.5693C5.0368 10.5849 5.08879 10.5471 5.1114 10.4848C5.12414 10.461 5.12702 10.4332 5.11944 10.4073C5.11186 10.3814 5.0944 10.3594 5.07071 10.3459V10.3459Z" fill="#231F20"/>
<path d="M5.75096 8.86119C5.79504 8.87676 5.84816 8.83896 5.87077 8.7778C5.89337 8.71665 5.87077 8.65438 5.83008 8.63993C5.78939 8.62547 5.73175 8.66105 5.70914 8.72221C5.69807 8.74647 5.69619 8.77383 5.70387 8.79932C5.71154 8.82482 5.72825 8.84677 5.75096 8.86119V8.86119Z" fill="#231F20"/>
<path d="M10.8495 5.07282C10.593 4.26003 10.4438 3.40499 9.9702 2.67336C9.43108 1.84167 8.36752 1.15564 7.38647 1.00553C6.23475 0.833188 5.27179 1.37246 4.64451 2.30311C4.23243 2.91259 3.90372 3.57279 3.66685 4.2667C3.27578 5.45309 3.04634 6.11244 2.55469 6.04572C2.82771 6.10927 3.11445 6.08172 3.36981 5.96739C3.62516 5.85305 3.83462 5.65844 3.96523 5.41417C3.96859 5.67993 3.93861 5.94508 3.87594 6.20361C4.09572 6.0721 4.28359 5.89487 4.42637 5.68436C4.43058 5.69612 4.43549 5.70763 4.44106 5.71883C4.39888 5.74068 4.36279 5.77237 4.33595 5.81112C4.31182 5.84773 4.296 5.88903 4.28956 5.9322C4.28312 5.97537 4.28622 6.01941 4.29865 6.06129C4.37777 6.38708 5.12825 6.63725 5.48766 6.64392C5.57317 6.64983 5.65862 6.63171 5.73406 6.59166L5.78718 6.61724C6.01323 6.72843 6.19746 6.81515 6.36021 6.88075L6.38508 7.16651C6.38508 7.17207 6.34891 7.20876 6.30822 7.26547H6.29579C5.74875 7.16873 5.1825 7.06866 4.73492 7.43003C4.51107 7.62892 4.32037 7.86117 4.1698 8.11829L4.14381 8.15721C4.07034 8.26839 3.99122 8.37958 3.91776 8.49077C3.62277 8.91218 3.3176 9.34582 3.21814 9.88731C3.1718 10.1408 3.21023 10.3143 3.33116 10.4166C3.5233 10.5756 3.85899 10.5033 4.31447 10.3487C4.16821 10.6719 4.08281 11.0185 4.06243 11.3717C4.05993 11.4892 4.07987 11.6061 4.1212 11.7164C4.15553 11.8017 4.20973 11.8778 4.27944 11.9387C4.3303 12.0232 4.37212 12.0966 4.39246 12.1367C4.39246 12.1367 4.1585 12.1211 3.81378 12.1011C3.46905 12.0811 3.01131 12.0577 2.56373 12.0399C2.83896 12.2506 3.13072 12.4394 3.43628 12.6048V12.6048C3.54252 12.6626 3.64989 12.716 3.75953 12.7671C3.81265 12.7927 3.8669 12.8171 3.92002 12.8405C4.03304 12.8894 4.13703 12.9339 4.24892 12.975L4.4162 13.0362C4.52922 13.0751 4.64224 13.1096 4.75527 13.1474C4.82308 13.1663 4.8909 13.1852 4.95984 13.2018C4.99262 13.2119 5.0254 13.2196 5.0593 13.2274L5.08869 13.2341L5.11016 13.2397C5.61082 13.3566 6.12367 13.4156 6.63825 13.4153C6.75128 13.4153 6.8643 13.4153 6.97054 13.4064C7.1333 12.935 6.97732 12.2945 6.66538 11.7642C6.67602 11.7453 6.6851 11.7256 6.6925 11.7052C6.82248 11.3517 7.05418 11.0225 7.53001 10.5366C7.8883 10.9314 7.93464 11.0837 7.93464 11.1348C7.93569 11.1411 7.93569 11.1475 7.93464 11.1537C7.93363 11.1571 7.93153 11.16 7.92867 11.162C7.9258 11.164 7.92234 11.165 7.91882 11.1649L7.90638 11.2583L8.81057 11.5129L8.88178 11.5329L8.87048 11.4606L8.74163 10.5711V10.5455L8.7179 10.5344C8.50184 10.4294 8.29537 10.3063 8.10078 10.1664C8.55288 9.90065 8.96542 9.39919 9.25476 8.92107C9.55654 8.42406 9.81988 7.77916 9.64922 7.46116C9.38022 6.95303 8.36187 7.12759 7.95385 7.22099L7.99793 6.82071C8.43167 6.55095 8.8501 6.25809 9.25137 5.94343C9.29175 5.9696 9.33716 5.98734 9.38479 5.99556C9.43242 6.00378 9.48125 6.00231 9.52828 5.99124C9.95325 5.90674 10.5093 5.24739 10.593 4.73147C10.6079 4.65807 10.6079 4.5825 10.593 4.5091C10.6992 4.68721 10.7852 4.87625 10.8495 5.07282V5.07282ZM6.56592 6.95748L6.55913 6.88854L6.62695 6.91077C7.06661 7.05532 7.25988 7.00973 7.44863 6.96637C7.49711 6.95253 7.54661 6.9425 7.5967 6.93635C7.64243 6.92732 7.68684 6.91275 7.72894 6.89299L7.79788 6.85963L7.78997 6.93301L7.76962 7.12204L7.74589 7.34441V7.38444C7.72441 7.39556 7.69051 7.41335 7.64643 7.43225C7.40908 7.53788 6.89256 7.70689 6.60547 7.35109L6.59078 7.18986L6.56592 6.95748ZM7.77415 7.58013C7.74481 7.77582 7.69169 7.96732 7.61591 8.15053L7.30622 7.7358C7.4687 7.70521 7.62614 7.65283 7.77415 7.58013ZM6.31161 7.52454L6.34552 7.46672C6.36699 7.43336 6.38734 7.40223 6.40768 7.37443V7.38555C6.40981 7.40888 6.41841 7.43119 6.43255 7.45004C6.50751 7.55084 6.607 7.63151 6.72189 7.68465L6.18841 7.9693C6.18033 7.81193 6.22349 7.65612 6.31161 7.52454V7.52454ZM3.50296 10.2209C3.45888 10.1831 3.44984 10.0808 3.47697 9.93067C3.56512 9.44366 3.8409 9.05005 4.13364 8.63532C4.21162 8.52413 4.29187 8.41294 4.36759 8.29397L4.39359 8.25505C4.52948 8.02033 4.70142 7.80767 4.90333 7.62461C5.2424 7.35331 5.6945 7.41557 6.1692 7.49897C6.07878 7.67576 6.0121 7.89591 6.09008 8.08716L6.11608 8.15276L6.1805 8.1194L6.88803 7.74247C6.85865 7.80362 6.82474 7.88034 6.79196 7.97041C6.59643 8.28952 6.24719 8.80433 5.8663 9.09564C5.45087 9.14138 5.0392 9.21569 4.63433 9.31802V9.31802C5.01522 8.84658 5.1938 8.56082 5.16442 8.46965L5.04122 8.51079C5.04097 8.50745 5.04097 8.50411 5.04122 8.50078C5.04122 8.5775 4.76318 8.95888 4.51114 9.2691L4.58799 9.32913C4.27944 9.40697 4.0613 9.47702 4.00931 9.4937H4.00253L4.03643 9.61489H4.05C4.31334 9.56486 4.87959 9.68605 5.27179 9.78612C5.13263 9.80495 4.99588 9.83812 4.86377 9.88508L4.62981 9.96847C4.1359 10.1464 3.63294 10.3287 3.50296 10.2209ZM6.63486 9.07562C6.41676 9.06348 6.19806 9.06683 5.98045 9.08563C6.26336 8.83079 6.50941 8.53898 6.71172 8.21836C6.63132 8.49678 6.60486 8.78759 6.63373 9.07562H6.63486ZM7.08696 10.0763C6.86127 10.0414 6.63814 9.99195 6.41898 9.92845C6.19215 9.8606 5.96005 9.81114 5.72502 9.78057V9.78057C5.31021 9.65603 4.88676 9.56127 4.45801 9.49703C4.98471 9.35693 5.91151 9.15123 6.6552 9.2046C6.71434 9.52966 6.86467 9.83198 7.08922 10.0774L7.08696 10.0763ZM4.52696 11.8687C4.47511 11.85 4.42803 11.8204 4.38899 11.782C4.34995 11.7436 4.31989 11.6973 4.30091 11.6463C4.27583 11.5803 4.26097 11.511 4.25683 11.4406C4.22518 10.9803 4.52357 10.3499 4.52583 10.3432V10.3343V10.3265C4.52866 10.3077 4.52866 10.2886 4.52583 10.2698V10.2698L4.69763 10.2075L4.93046 10.1252C5.08667 10.0677 5.25099 10.0344 5.41759 10.0263C5.22946 10.3732 5.1349 10.7618 5.14294 11.1549C5.14302 11.275 5.15171 11.395 5.16894 11.514C5.18852 11.6612 5.22027 11.8066 5.26388 11.9487C5.26388 11.9699 5.27631 11.991 5.28309 12.0121C5.02554 12.0059 4.77081 11.9578 4.52922 11.8698L4.52696 11.8687ZM7.3989 10.3965C6.93324 10.8747 6.68572 11.2116 6.53879 11.5663C6.52862 11.5907 6.51958 11.6152 6.51053 11.6396C6.45559 11.7477 6.35985 11.8303 6.2438 11.8698C5.95877 11.9766 5.65447 12.0247 5.34978 12.011C5.34186 11.9899 5.33508 11.9699 5.32943 11.9487C5.28479 11.8067 5.25191 11.6613 5.2311 11.514C5.14704 11.0004 5.24395 10.4739 5.50575 10.0218C5.79361 10.0334 6.07847 10.0839 6.3523 10.1719C6.67867 10.273 7.01659 10.3335 7.35821 10.3521L7.3989 10.3943V10.3965ZM8.64217 10.61L8.75519 11.4017L8.02393 11.1938C8.04427 11.1437 8.10418 11.0003 7.49498 10.3587L7.43394 10.2943C7.39438 10.252 7.35143 10.2086 7.30622 10.1631L7.23615 10.0941C6.99076 9.85549 6.82483 9.54918 6.76032 9.21572C6.75128 9.17236 6.74449 9.129 6.73884 9.08563C6.70054 8.62912 6.78677 8.17082 6.98863 7.75804V7.75804H7.00671C6.84219 8.14767 6.83051 8.5835 6.97393 8.98112C6.99295 9.03448 7.01484 9.08681 7.03949 9.13789C7.06322 9.19015 7.08922 9.2413 7.11747 9.29022C7.29029 9.57964 7.5133 9.83704 7.7764 10.0508C7.79562 10.0674 7.81483 10.0841 7.83405 10.0986L7.94707 10.1853L8.00584 10.2287C8.20915 10.3733 8.42425 10.5013 8.64895 10.6111L8.64217 10.61ZM9.41073 7.57791C9.48872 7.72579 9.38022 8.20168 9.02306 8.79098C8.72355 9.28466 8.28727 9.7839 7.86795 9.99627C7.60394 9.78799 7.37902 9.53587 7.20337 9.2513C7.30848 9.14012 7.89056 8.50411 8.11661 8.01599L8.00358 7.96485C7.80466 8.39515 7.29605 8.96555 7.14347 9.13344C7.11165 9.07029 7.08372 9.00531 7.05983 8.93886C6.92174 8.55316 6.9379 8.13023 7.10504 7.75581H7.15703L7.57635 8.31176L7.64077 8.39737L7.68599 8.30175C7.80718 8.04679 7.88361 7.77348 7.91203 7.49341C8.28275 7.39778 9.23442 7.23545 9.41751 7.57902L9.41073 7.57791ZM10.3974 4.7059C10.3206 5.17734 9.80293 5.7444 9.48759 5.80667C9.45558 5.81781 9.42062 5.81769 9.38869 5.80634C9.35675 5.79498 9.32979 5.7731 9.3124 5.7444L9.27397 5.68436L9.21746 5.72773C8.72468 6.10577 8.31327 6.40153 8.01489 6.58833L7.94933 6.62836L7.87926 6.67061L7.80918 6.71064L7.74024 6.74733C7.6882 6.77639 7.63227 6.7981 7.57409 6.81182C7.51991 6.81947 7.4663 6.83062 7.4136 6.84517C7.22711 6.88854 7.04853 6.93079 6.61 6.77624C6.58852 6.76957 6.56591 6.76067 6.54331 6.75178L6.4755 6.7262L6.40881 6.69841L6.34213 6.67172C6.20763 6.6139 6.05279 6.54163 5.87421 6.44934L5.73519 6.3804L5.66511 6.34482L5.64364 6.41932C5.64364 6.43489 5.59504 6.45712 5.49106 6.45601C5.15198 6.45045 4.53261 6.20584 4.4874 6.02015C4.4819 6.00375 4.47986 5.98641 4.48141 5.9692C4.48297 5.95199 4.48808 5.93528 4.49644 5.92008C4.53547 5.88071 4.58862 5.85796 4.64451 5.85671L4.75753 5.84003L4.68858 5.7533C4.62556 5.67093 4.58369 5.5748 4.56652 5.4731C4.67718 5.27436 4.76151 5.06249 4.81743 4.84266C5.0853 3.81639 5.0853 2.62778 6.38395 2.61221C6.38395 2.61221 6.73884 2.94578 7.55375 3.12257C8.36865 3.29936 9.02306 3.82084 9.07618 3.96649C9.06714 3.92535 8.90213 3.25488 7.73233 2.70783C7.73233 2.70783 9.07957 2.80902 9.66278 3.96983C9.70532 4.11906 9.73221 4.27219 9.74302 4.42681L9.74868 4.50576L9.83231 4.48352C10.0877 4.40569 10.2742 4.40013 10.3579 4.47129C10.3836 4.50414 10.4007 4.54276 10.4077 4.5837C10.4146 4.62464 10.411 4.66662 10.3974 4.7059ZM9.91595 4.26114C9.91595 4.24224 9.90917 4.22334 9.90691 4.20444L10.0753 3.78748C10.2135 3.95813 10.3429 4.13551 10.463 4.31896C10.35 4.22667 10.1714 4.20555 9.92047 4.26114H9.91595Z" fill="#231F20"/>
<path d="M6.00287 1.84985C6.03339 1.95326 6.18936 2.3969 6.58721 2.60482C6.81206 2.72474 7.04779 2.82376 7.29135 2.90058C7.62251 2.99843 7.94576 3.05514 8.2498 3.23415C8.44439 3.34731 8.63025 3.47441 8.80588 3.61442C8.68381 3.51657 8.59226 3.37425 8.46115 3.28085C8.12208 3.0329 7.70841 2.98954 7.32074 2.87279C6.95243 2.77248 6.61301 2.58897 6.32951 2.33686C6.18233 2.19753 6.06844 2.02777 5.99609 1.83984L6.00287 1.85986V1.84985Z" fill="url(#paint4_linear_10491_26235)"/>
<path d="M7.80398 2.48201C8.8212 2.55651 9.74913 3.37153 9.81355 3.9864C9.81355 3.9864 9.78756 2.89119 8.49795 2.51982C7.20835 2.14845 7.05463 2.45311 6.48047 1.8916C6.48047 1.8916 6.79015 2.40863 7.80398 2.48201V2.48201Z" fill="url(#paint5_linear_10491_26235)"/>
<path d="M4.66693 3.88632C4.59567 4.49305 4.43618 5.08656 4.19336 5.64867C4.62059 5.07827 4.71327 4.55679 4.90428 3.56832C4.97012 3.17759 5.14726 2.81325 5.41515 2.51759C5.04104 2.83114 4.73701 3.16804 4.66693 3.88632V3.88632ZM5.41515 2.51759C5.51687 2.43308 5.62425 2.34969 5.73275 2.26074C5.61378 2.32935 5.50659 2.41603 5.41515 2.51759V2.51759Z" fill="url(#paint6_linear_10491_26235)"/>
</g>
<defs>
<linearGradient id="paint0_linear_10491_26235" x1="6.46875" y1="7.10139" x2="7.89399" y2="7.10139" gradientUnits="userSpaceOnUse">
<stop stop-color="#FFE5E0"/>
<stop offset="0.99" stop-color="#FEFEFE"/>
<stop offset="1" stop-color="#FEFEFE"/>
</linearGradient>
<linearGradient id="paint1_linear_10491_26235" x1="6.93674" y1="6.34724" x2="7.08006" y2="4.53449" gradientUnits="userSpaceOnUse">
<stop stop-color="#FEFEFE"/>
<stop offset="0.01" stop-color="#FEFEFE"/>
<stop offset="1" stop-color="#FFE5E0"/>
</linearGradient>
<linearGradient id="paint2_linear_10491_26235" x1="7.71103" y1="4.76359" x2="8.95995" y2="4.76359" gradientUnits="userSpaceOnUse">
<stop stop-color="#C3C2C3"/>
<stop offset="0.99" stop-color="white"/>
<stop offset="1" stop-color="white"/>
</linearGradient>
<linearGradient id="paint3_linear_10491_26235" x1="306.861" y1="683.748" x2="320.642" y2="683.748" gradientUnits="userSpaceOnUse">
<stop stop-color="#C3C2C3"/>
<stop offset="0.99" stop-color="white"/>
<stop offset="1" stop-color="white"/>
</linearGradient>
<linearGradient id="paint4_linear_10491_26235" x1="5.99609" y1="2.71935" x2="8.80588" y2="2.71935" gradientUnits="userSpaceOnUse">
<stop stop-color="white"/>
<stop offset="0.01" stop-color="white"/>
<stop offset="1" stop-color="#231F20"/>
</linearGradient>
<linearGradient id="paint5_linear_10491_26235" x1="6.48047" y1="2.94345" x2="9.81355" y2="2.94345" gradientUnits="userSpaceOnUse">
<stop stop-color="#231F20"/>
<stop offset="0.99" stop-color="white"/>
<stop offset="1" stop-color="white"/>
</linearGradient>
<linearGradient id="paint6_linear_10491_26235" x1="380.281" y1="1152.63" x2="318.756" y2="1214.42" gradientUnits="userSpaceOnUse">
<stop stop-color="white"/>
<stop offset="0.01" stop-color="white"/>
<stop offset="1" stop-color="#231F20"/>
</linearGradient>
<clipPath id="clip0_10491_26235">
<rect width="51.0711" height="13.0647" fill="white" transform="translate(0 0.351562)"/>
</clipPath>
</defs>
</svg>
