<svg width="8" height="8" viewBox="0 0 8 8" fill="none" xmlns="http://www.w3.org/2000/svg">
<path d="M5.78446 8C5.12265 8 4.30705 7.68278 3.35102 6.72677L1.27317 4.64897C-0.722951 2.65257 0.0656247 1.26759 0.713431 0.619798L1.07203 0.261545C1.34956 -0.0163175 1.7692 -0.0793615 2.11645 0.104101C2.69087 0.407982 3.27096 1.37833 3.33534 1.48808C3.46544 1.7169 3.50447 1.95541 3.44676 2.16389C3.40139 2.32667 3.30132 2.4601 3.15555 2.55116C3.00444 2.67792 2.82597 2.83569 2.78828 2.88039C2.62182 3.1269 2.6385 3.28968 2.86267 3.51417L4.48585 5.13699C4.71001 5.36148 4.87313 5.37848 5.13132 5.20303C5.16501 5.17334 5.32213 4.99555 5.44888 4.84445C5.53995 4.69868 5.67338 4.59827 5.83617 4.55324C6.04399 4.49486 6.28316 4.53423 6.50832 4.66265C6.62174 4.72903 7.59178 5.3091 7.89567 5.88317H7.896C8.07947 6.23042 8.01609 6.65038 7.73822 6.92825L7.37996 7.2865C7.04238 7.62407 6.50466 8 5.78446 8Z" fill="#3A434D"/>
</svg>
